<?xml version="1.0" encoding="UTF-8"?>
<svg id="Layer_1" xmlns="http://www.w3.org/2000/svg" xmlns:xlink="http://www.w3.org/1999/xlink" version="1.1" viewBox="0 0 850.4 841.9">
  <!-- Generator: Adobe Illustrator 29.5.1, SVG Export Plug-In . SVG Version: 2.1.0 Build 141)  -->
  <defs>
    <style>
      .st0 {
        fill: none;
      }

      .st1 {
        fill: #031b34;
      }

      .st2 {
        fill: url(#radial-gradient12);
      }

      .st3 {
        fill: url(#radial-gradient10);
      }

      .st4 {
        fill: url(#radial-gradient13);
      }

      .st5 {
        fill: url(#radial-gradient11);
      }

      .st6 {
        fill: url(#radial-gradient);
      }

      .st7 {
        fill: url(#linear-gradient);
      }

      .st8 {
        fill: #212222;
      }

      .st9 {
        fill: #fff;
      }

      .st10 {
        fill: #868b8c;
      }

      .st11 {
        fill: url(#radial-gradient1);
      }

      .st12 {
        fill: url(#radial-gradient6);
      }

      .st13 {
        fill: url(#radial-gradient9);
      }

      .st14 {
        fill: url(#radial-gradient8);
      }

      .st15 {
        fill: url(#radial-gradient3);
      }

      .st16 {
        fill: url(#radial-gradient2);
      }

      .st17 {
        fill: url(#radial-gradient5);
      }

      .st18 {
        fill: url(#radial-gradient4);
      }

      .st19 {
        fill: url(#radial-gradient7);
      }

      .st20 {
        clip-path: url(#clippath);
      }
    </style>
    <radialGradient id="radial-gradient" cx="0" cy="0" fx="0" fy="0" r="1" gradientTransform="translate(425.2 662.1) scale(56.1 -56.1)" gradientUnits="userSpaceOnUse">
      <stop offset="0" stop-color="#bcbcbc"/>
      <stop offset=".2" stop-color="#bcbcbc"/>
      <stop offset=".7" stop-color="#9c9e9f"/>
      <stop offset="1" stop-color="#9c9e9f"/>
    </radialGradient>
    <radialGradient id="radial-gradient1" cx="0" cy="0" fx="0" fy="0" r="1" gradientTransform="translate(425.2 662.1) scale(56.1 -56.1)" gradientUnits="userSpaceOnUse">
      <stop offset="0" stop-color="#bcbcbc"/>
      <stop offset=".2" stop-color="#bcbcbc"/>
      <stop offset=".7" stop-color="#9c9e9f"/>
      <stop offset="1" stop-color="#9c9e9f"/>
    </radialGradient>
    <radialGradient id="radial-gradient2" cx="0" cy=".7" fx="0" fy=".7" r=".6" gradientTransform="translate(425.8 594) scale(77.9 -77.9)" gradientUnits="userSpaceOnUse">
      <stop offset="0" stop-color="#bcbcbc"/>
      <stop offset=".2" stop-color="#bcbcbc"/>
      <stop offset=".7" stop-color="#9c9e9f"/>
      <stop offset="1" stop-color="#9c9e9f"/>
    </radialGradient>
    <clipPath id="clippath">
      <polyline class="st0" points="331.8 536.5 519.7 536.5 519.7 651.6 331.8 651.6 331.8 536.5"/>
    </clipPath>
    <radialGradient id="radial-gradient3" cx="0" cy="0" fx="0" fy="0" r="1" gradientTransform="translate(425.8 594) scale(77.9 -77.9)" gradientUnits="userSpaceOnUse">
      <stop offset="0" stop-color="#bcbcbc"/>
      <stop offset=".2" stop-color="#bcbcbc"/>
      <stop offset=".7" stop-color="#9c9e9f"/>
      <stop offset="1" stop-color="#9c9e9f"/>
    </radialGradient>
    <radialGradient id="radial-gradient4" cx="0" cy="0" fx="0" fy="0" r="1" gradientTransform="translate(425.8 594) scale(77.9 -77.9)" gradientUnits="userSpaceOnUse">
      <stop offset="0" stop-color="#bcbcbc"/>
      <stop offset=".2" stop-color="#bcbcbc"/>
      <stop offset=".7" stop-color="#9c9e9f"/>
      <stop offset="1" stop-color="#9c9e9f"/>
    </radialGradient>
    <radialGradient id="radial-gradient5" cx="0" cy="0" fx="0" fy="0" r="1" gradientTransform="translate(425.8 594) scale(77.9 -77.9)" gradientUnits="userSpaceOnUse">
      <stop offset="0" stop-color="#031b34"/>
      <stop offset=".2" stop-color="#031b34"/>
      <stop offset=".7" stop-color="#031b34"/>
      <stop offset="1" stop-color="#031b34"/>
    </radialGradient>
    <radialGradient id="radial-gradient6" cx="0" cy="0" fx="0" fy="0" r="1" gradientTransform="translate(425.8 594) scale(77.9 -77.9)" gradientUnits="userSpaceOnUse">
      <stop offset="0" stop-color="#031b34"/>
      <stop offset=".2" stop-color="#031b34"/>
      <stop offset=".7" stop-color="#031b34"/>
      <stop offset="1" stop-color="#031b34"/>
    </radialGradient>
    <linearGradient id="linear-gradient" x1="0" y1="0" x2="1" y2="0" gradientTransform="translate(384.6 616.8) scale(157.5 -157.5)" gradientUnits="userSpaceOnUse">
      <stop offset="0" stop-color="#5f150f"/>
      <stop offset=".3" stop-color="#d19d55"/>
      <stop offset=".8" stop-color="#975a24"/>
      <stop offset=".9" stop-color="#5f150f"/>
      <stop offset="1" stop-color="#5f150f"/>
    </linearGradient>
    <radialGradient id="radial-gradient7" cx="0" cy="0" fx="0" fy="0" r="1" gradientTransform="translate(661.7 192.9) rotate(-180) scale(65.5)" gradientUnits="userSpaceOnUse">
      <stop offset="0" stop-color="#bcbcbc"/>
      <stop offset=".2" stop-color="#bcbcbc"/>
      <stop offset=".7" stop-color="#9c9e9f"/>
      <stop offset="1" stop-color="#9c9e9f"/>
    </radialGradient>
    <radialGradient id="radial-gradient8" cx="0" cy="0" fx="0" fy="0" r="1" gradientTransform="translate(188.6 192.9) scale(65.5 -65.5)" gradientUnits="userSpaceOnUse">
      <stop offset="0" stop-color="#bcbcbc"/>
      <stop offset=".2" stop-color="#bcbcbc"/>
      <stop offset=".7" stop-color="#9c9e9f"/>
      <stop offset="1" stop-color="#9c9e9f"/>
    </radialGradient>
    <radialGradient id="radial-gradient9" cx="0" cy="0" fx="0" fy="0" r="1" gradientTransform="translate(535 520.9) scale(78.2 -78.2)" gradientUnits="userSpaceOnUse">
      <stop offset="0" stop-color="#bcbcbc"/>
      <stop offset=".2" stop-color="#bcbcbc"/>
      <stop offset=".7" stop-color="#9c9e9f"/>
      <stop offset="1" stop-color="#9c9e9f"/>
    </radialGradient>
    <radialGradient id="radial-gradient10" cx="0" cy="0" fx="0" fy="0" r="1" gradientTransform="translate(425.2 376.6) scale(158.3 -158.3)" gradientUnits="userSpaceOnUse">
      <stop offset="0" stop-color="#bcbcbc"/>
      <stop offset=".2" stop-color="#bcbcbc"/>
      <stop offset=".7" stop-color="#9c9e9f"/>
      <stop offset="1" stop-color="#9c9e9f"/>
    </radialGradient>
    <radialGradient id="radial-gradient11" cx="0" cy="0" fx="0" fy="0" r="1" gradientTransform="translate(174.5 360.3) rotate(6.9) scale(61 -58.2)" gradientUnits="userSpaceOnUse">
      <stop offset="0" stop-color="#bcbcbc"/>
      <stop offset=".2" stop-color="#bcbcbc"/>
      <stop offset=".7" stop-color="#9c9e9f"/>
      <stop offset="1" stop-color="#9c9e9f"/>
    </radialGradient>
    <radialGradient id="radial-gradient12" cx="0" cy="0" fx="0" fy="0" r="1" gradientTransform="translate(674.4 360.3) rotate(173.1) scale(61 58.2)" gradientUnits="userSpaceOnUse">
      <stop offset="0" stop-color="#bcbcbc"/>
      <stop offset=".2" stop-color="#bcbcbc"/>
      <stop offset=".7" stop-color="#9c9e9f"/>
      <stop offset="1" stop-color="#9c9e9f"/>
    </radialGradient>
    <radialGradient id="radial-gradient13" cx="0" cy="0" fx="0" fy="0" r="1" gradientTransform="translate(315.3 520.9) scale(78.2 -78.2)" gradientUnits="userSpaceOnUse">
      <stop offset="0" stop-color="#bcbcbc"/>
      <stop offset=".2" stop-color="#bcbcbc"/>
      <stop offset=".7" stop-color="#9c9e9f"/>
      <stop offset="1" stop-color="#9c9e9f"/>
    </radialGradient>
  </defs>
  <path class="st1" d="M707.1,310.7h.2c-.3-.2-.6-.2-.9-.3,38.4-22.9,60.9-57.8,53.4-103.9-10.8-66.7-85.5-111.3-156.2-110.5-1.1,5.7,5.6,6.2,9.4,8.5,27.3,16.7,72.1,51.1,67.1,84.9-6.2,41.1-86,33.9-117.5,28-23.1-19.9-48-21.3-48-21.3,0,0-51,10.5-90.3,10.5s-88.4-10.5-88.4-10.5c0,0-24.9,1.4-48,21.3-31.5,5.9-111.4,13.2-117.5-28-5.1-33.8,39.8-68.2,67.1-84.9,3.8-2.3,10.5-2.7,9.4-8.5-70.7-.8-145.3,43.8-156.2,110.5-7.5,46.1,15,81,53.4,103.9-47.2,8.8-57.9,20.5-57.9,20.5,37.9,78.9,92.3,81.9,117.1,80.2,21.6-1.4,42.4-9.5,61.1-20.4l-11.6,118.5c35.3,37.8,63.5,83.6,66.1,134.4,0,0,8.5,16.6,22.3,22.2,5.8,15.6,21.9,20.4,21.9,20.4,36.2-10,87.1-10.7,124.8,0,0,0,16-4.8,21.7-20.4,13.8-5.6,22.3-22.2,22.3-22.2,2.5-50.9,30.8-96.6,66.1-134.4,0,0-.6-67.4-9.7-117.1,18.1,10.1,37.9,17.5,58.5,18.9,24.8,1.7,79.3-1.3,117.1-80.2,0,0-10.6-11.5-56.6-20.3M318.5,574.1s9.8,25,6.6,49.8c-.8-27.2-14.7-49.3-14.7-49.3,0,0,2.8-28.3,29.6-54.1-22.9-9.3-49.8-26.6-64.7-61.4-1-14,0-27.7,3-41.3,20.2,29.7,50.2,22,50.2,22,0,0-5.8,17.2-19.2,25.7,20.9-.8,31.7-10.7,31.7-10.7l14.6,70.9c-30.2,21.1-37.1,48.4-37.1,48.4M481.6,525.7c-7.7,12.7-32.7,20.4-56.4,20.4s-48.7-7.7-56.4-20.4c-12.5-43.5-11.7-94.7,25.3-124.7-17.8,3.5-23.3,5.2-40.5,15.5-38.9-12.9-59.1-60.4-59.1-60.4,0,0-8.5,2.9-15.4,12.9,0,0,3.2-32.9,31.1-44.2,16.6,31.3,44.6,48,45.5,48.6-.8-.9-24.9-30.4-38-65.2,0-3.2,0-6.2-.2-9.1.1,0,.3,0,.4.1,1.1-6.4,1.6-13.4,1.6-20.6,0-24.3-6.4-45.3-15.7-54.9,14.7-13.5,32-16.6,32-16.6,0,0,51,11.3,88.5,11.3s90.4-11.3,90.4-11.3c0,0,15.7,1.3,31.9,16.7-9.2,9.6-15.6,30.5-15.6,54.8s.6,14.2,1.6,20.6c.1,0,.3,0,.4-.1-.1,2.9-.2,6-.2,9.1-13.1,34.8-37.2,64.3-38,65.2.9-.5,28.9-17.2,45.5-48.6,15.2,6.1,23,18.6,27.1,28.7-.2.1-.3.3-.5.4,1.3,3.3,2.2,6.3,2.8,8.8.3.3.6.6.9.8.8,3.3,1,5.4,1,5.4-6.9-10-15.4-12.9-15.4-12.9,0,0-20.2,47.5-59.1,60.4-17.3-10.3-22.7-12-40.5-15.5,37,30,37.8,81.2,25.3,124.7M575,459.1c-14.9,34.8-41.8,52.1-64.7,61.4,26.8,25.8,29.6,54.1,29.6,54.1,0,0-13.9,22.1-14.6,49.3-3.2-24.8,6.6-49.8,6.6-49.8,0,0-6.9-27.3-37.1-48.4l14.6-70.9s10.8,9.9,31.7,10.7c-13.4-8.4-19.2-25.7-19.2-25.7,0,0,30,7.7,50.2-22,3.1,13.5,4,27.3,3,41.3"/>
  <path class="st1" d="M587.9,469.1c-.8-2.4-1.6-4.6-2.4-6.6h-317.9c-.8,2-1.6,4.1-2.4,6.6-6.8,20.1-16.1,52.7-21.2,94.1-.4,3.3.3,6.6,2.1,9.3.4.6.8,1.3,1.3,2,10.6,16.9,67.2,102.2,169,168.9h0c0,0,.2.1.3.2.2.1.3.2.5.3.2.1.4.2.6.3.2.1.5.2.7.3.2,0,.3.1.5.2.2,0,.4.2.6.2.2,0,.3.1.5.2.3,0,.6.2.9.2.2,0,.4,0,.5.1.2,0,.5,0,.7.1.2,0,.4,0,.5,0,.3,0,.5,0,.8,0,.1,0,.2,0,.4,0s.2,0,.3,0c.2,0,.5,0,.7,0,.3,0,.5,0,.8,0,.2,0,.4,0,.5,0h.2s.2,0,.2,0c.2,0,.4,0,.7.1.2,0,.5,0,.7,0,.2,0,.5,0,.7,0,.1,0,.2,0,.3,0s.2,0,.3,0c.3,0,.5,0,.8,0,.2,0,.3,0,.5,0,.2,0,.5,0,.7-.1.2,0,.4,0,.6-.1.3,0,.6-.1.9-.2.2,0,.3-.1.5-.2.2,0,.4-.1.6-.2.2,0,.3-.1.5-.2.2-.1.5-.2.7-.4.2-.1.4-.2.6-.3.2-.1.4-.2.5-.3,0,0,.2-.1.3-.2h0c101.8-66.7,158.4-152,169-168.9.5-.8.9-1.4,1.3-1.9,1.8-2.8,2.6-6.1,2.2-9.4-5.1-41.4-14.3-74.1-21.2-94.1"/>
  <path class="st6" d="M489.8,677c-28-9-96-9.2-129.2,0,0,0-9.6-2.9-13.3-15.1,13.9-5.5,42.2-14.6,77.9-14.6s64.1,9.1,78,14.7c-3.7,12.1-13.3,15.1-13.3,15.1Z"/>
  <path class="st1" d="M489.8,677l8.2-25.6c-5-1.6-10.2-2.8-15.7-3.8-8.2-1.5-17.1-2.5-26.5-3.3-9.4-.7-19.3-1-29.2-1-13.1,0-26.2.6-38.6,1.8-6.2.6-12.2,1.4-18,2.4-5.8,1-11.3,2.1-16.5,3.6l7.2,25.9,7.9-25.7-4.7,15.3,7-14.4c-.5-.2-1.2-.5-2.3-.9l-4.7,15.3,7-14.4-3,6.2,3.9-5.7c-.3-.2-.5-.3-.9-.5l-3,6.2,3.9-5.7-2.5,3.6,3.5-2.7c-.3-.3-.6-.7-1-.9l-2.5,3.6,3.5-2.7-2.2,1.7,2.5-1.3c0,0-.1-.3-.3-.4l-2.2,1.7,2.5-1.3-.8.4.9-.4h0c0,0-.8.4-.8.4l.9-.4h0c0,0-25.7,7.8-25.7,7.8l9.9,25c5.8-2.3,15.1-5.5,26.7-8.1,11.6-2.6,25.7-4.6,41.2-4.6,15.6,0,29.7,2,41.4,4.6,11.7,2.6,20.9,5.8,26.7,8.1l10-25-25.7-7.9h0c0,0,.6.3.6.3l-.6-.3h0s.6.3.6.3l-.6-.3,2.7,1.3-2.2-2c-.2.3-.4.5-.5.7l2.7,1.3-2.2-2,3.3,3-2.7-3.5c-.2.2-.4.3-.6.5l3.3,3-2.7-3.5,4,5.1-2.8-5.8c-.5.2-.8.5-1.2.7l4,5.1-2.8-5.8,7,14.5-4.7-15.4c-1.1.3-1.8.6-2.3.9l7,14.5-4.7-15.4,7.9,25.7,8.2-25.6-8.2,25.6,7.9,25.7c1.1-.3,3-1,5.4-2.2,1.8-.9,3.9-2.1,6.2-3.7,3.4-2.4,7.3-5.7,10.8-10.2,3.5-4.5,6.7-10.2,8.7-16.8,4.1-13.4-2.7-27.7-15.7-32.9-8.1-3.2-19.9-7.3-34.9-10.7-14.9-3.3-32.9-5.9-53.1-5.9-20.1,0-38.1,2.6-53,5.9-14.9,3.3-26.8,7.4-34.9,10.6-13,5.2-19.9,19.5-15.8,32.9,1.8,5.9,4.5,11,7.5,15.3,2.3,3.2,4.8,5.9,7.2,8.1,3.7,3.3,7.2,5.5,10.1,7,2.9,1.5,5.1,2.3,6.4,2.6,4.9,1.5,10.1,1.6,15.1.2,3-.8,6.8-1.7,11.1-2.4,6.5-1.1,14.2-2,22.3-2.6,8.1-.6,16.8-.9,25.3-.9,11.6,0,23,.5,32.9,1.6,4.9.5,9.4,1.1,13.2,1.8,3.8.7,7,1.5,9,2.1,5.2,1.7,10.8,1.7,16,0l-7.9-25.7"/>
  <path class="st8" d="M500.4,662c-3.6,11.7-12.8,14.5-12.8,14.5-27-8.6-92.6-8.9-124.6,0,0,0-9.3-2.8-12.9-14.6,13.4-5.3,40.7-14.1,75.1-14.1s61.8,8.8,75.2,14.1Z"/>
  <path class="st11" d="M489.8,677c-28-9-96-9.2-129.2,0,0,0-9.6-2.9-13.3-15.1,13.9-5.5,42.2-14.6,77.9-14.6s64.1,9.1,78,14.7c-3.7,12.1-13.3,15.1-13.3,15.1Z"/>
  <path class="st16" d="M362.8,536.5h0s0,0,0,0c0,0,0,0,0,0M488.8,536.5h0s0,0,0,0"/>
  <g class="st20">
    <path class="st15" d="M488.8,536.5h0c-14.3,14.4-37.7,22-63,22s-48.7-7.6-63-22h0c-.1,0-26.7,17.7-31,37.7h0c13.4,41.9.5,61.5.5,61.5,0,0,.5,1.2,1.4,3,1.1-.7,2.3-1.2,3.6-1.7,8.1-3.2,20-7.3,34.9-10.6,2-.4,4-.9,6-1.3-1.2-3.1-2-6.4-2.3-9.8h0c-.1-1.1-.1-2.3-.1-3.7,0-1.7,0-3.6.2-5.6,0-1.1.4-2.2.9-3.1-12-2.7-24-8.1-29.5-19,2.9-11.8,13.4-22.7,22.9-26.7,9.5,33.7,39.3,47.8,39.3,47.8,0,0-3.2.3-8.1.3.7,1,1.3,2.2,1.6,3.4.3,1.5.9,2.9,1.7,4.4.8,1.4,1.9,2.9,3.1,4.2,1.2,1.3,2.7,2.5,4.2,3.5,4.2-.2,8.6-.4,13-.4,5.1,0,10.1.2,14.9.5,2.8-1.9,5.3-4.3,6.9-6.8,1.3-1.9,2.1-3.9,2.4-5.9.2-1,.5-2,1-2.9-4.7,0-7.7-.3-7.7-.3,0,0,29.8-14.1,39.3-47.8,9.5,4,20,14.9,22.9,26.7-5.5,10.9-17.5,16.3-29.5,19,.5,1,.8,2,.9,3.1.2,2,.2,4,.2,5.6,0,1.4,0,2.5-.1,3.7h0c-.3,3.6-1.2,7-2.5,10.2,1.4.3,2.9.6,4.3.9,14.9,3.3,26.8,7.5,34.9,10.7,1.6.6,3,1.4,4.4,2.2,1.2-2.1,1.7-3.6,1.7-3.6,0,0-12.9-19.6.5-61.5-4.2-20-30.8-37.6-31-37.7"/>
    <path class="st18" d="M474,625.4c-.2.6-.5,1.2-.7,1.7-1.7,3.7-3.8,7.1-6.4,10.3-.1.1-.2.3-.3.4,16.3,3.9,28,9.5,38.3,13.8h0c6.5-2.7,10.6-8.6,12.7-12.4-1.4-.9-2.9-1.6-4.4-2.2-8.1-3.2-19.9-7.3-34.9-10.7-1.4-.3-2.8-.6-4.3-.9M378.2,625c-2.1.4-4.1.8-6,1.3-14.9,3.3-26.8,7.4-34.9,10.6-1.3.5-2.5,1.1-3.6,1.7,2,3.8,6.3,10.1,13.1,12.9h0c10.5-4.3,22.2-10.1,38.9-13.9-1.8-2.2-3.4-4.5-4.8-6.9-1-1.8-1.9-3.7-2.7-5.7M425.1,620.4c-4.4,0-8.8.1-13,.4,1.6,1.1,3.3,2,5.1,2.7,2.3.9,4.6,1.4,6.8,1.6h0c.7,0,1.4,0,2,0s1.6,0,2.4,0h0c3.3-.2,7-1.4,10.4-3.4.4-.2.8-.5,1.2-.8-4.8-.3-9.8-.5-14.9-.5"/>
    <path class="st17" d="M458.5,607.5h.2s-.2,0-.2,0M458.7,607.4l4.6-.4-4.6.4M464.1,607l3.3-.3-3.3.3M475.5,602.8c-8.9,2-17.8,2.4-24.1,2.4s-.7,0-1,0c-.5.9-.9,1.8-1,2.9-.4,2-1.2,4-2.4,5.9-1.6,2.5-4.1,5-6.9,6.8,12.4.8,23.8,2.4,34,4.5,1.3-3.2,2.1-6.6,2.5-10.2h0c0-1.1.1-2.3.1-3.7,0-1.7,0-3.6-.2-5.6,0-1.1-.4-2.2-.9-3.1M376.8,602.8c-.5,1-.8,2-.9,3.1-.2,2-.2,4-.2,5.6,0,1.4,0,2.6.1,3.7h0c.3,3.4,1.1,6.7,2.3,9.8,10.2-2,21.5-3.6,33.9-4.3-1.6-1-3-2.2-4.2-3.5-1.3-1.3-2.3-2.7-3.1-4.2-.8-1.4-1.4-2.9-1.7-4.4-.3-1.3-.8-2.4-1.6-3.4-.2,0-.4,0-.6,0-6.3,0-15.2-.5-24.1-2.4"/>
    <path class="st12" d="M412.1,620.7c-12.4.7-23.8,2.3-33.9,4.3.8,2,1.7,3.9,2.7,5.7,1.4,2.5,3,4.8,4.8,6.9,10.9-2.5,24-4.3,40.1-4.3s29.7,1.8,40.7,4.4c.1-.1.2-.3.3-.4,2.5-3.1,4.7-6.6,6.4-10.3.3-.6.5-1.1.7-1.7-10.1-2.1-21.5-3.8-34-4.5-.4.3-.8.5-1.2.8-3.3,2-7.1,3.2-10.4,3.4h0c-.8,0-1.6,0-2.4,0s-1.4,0-2,0h0c-2.1-.1-4.5-.7-6.8-1.6-1.8-.7-3.5-1.6-5.1-2.7"/>
  </g>
  <path class="st7" d="M462.7,589.8c-1.5,1.6-3.1,3-4.5,4.3,0,2.5.5,6.7.4,8.7-.5,14.7-15.6,26.5-29.6,27.5-1.8.1-3.6.1-5.6,0-14-.9-29.2-12.7-29.7-27.5,0-2,0-6.6,0-9.1-1.5-1.3-3-2.7-4.6-4.3-5.2.9-4.7,17.1-4.3,21.3,1.5,16.6,19.2,31.6,35.3,33,2.3.2,4.5.3,6.6.2,1.8,0,3.6,0,5.5-.2,16.1-1.5,33.8-16.5,35.3-33,.4-4.2.5-20.1-4.8-20.9Z"/>
  <path class="st19" d="M664.8,262.2c-10.5,6.4-21.7,11-33.3,14,10.6-5.5,20.9-11.5,29.9-18.9,8.3-6.6,15.7-14.6,21.2-23.7.6-1.1,2.2-4.3,2.9-5.5.5-1.3,1.8-4.5,2.3-5.7,5.8-17.6,3.2-37.4-5.6-53.5-5.6-9.8-12.7-18.3-20.9-25.6-11.7-13.2-26.9-24.9-39.9-33.5,29.5,8.6,56.3,26.4,71.6,53.3,9.2,16.9,12.1,37.5,7,56.2-.6,1.6-1.7,5.4-2.4,6.9-1,2.1-2.1,4.5-3.1,6.5-.8,1.3-3,4.9-3.8,6.1-6.8,9.5-15.7,17.5-25.7,23.6Z"/>
  <path class="st14" d="M185.6,262.2c10.5,6.4,21.7,11,33.3,14-10.6-5.5-20.9-11.5-29.9-18.9-8.3-6.6-15.7-14.6-21.2-23.7-.6-1.1-2.2-4.3-2.9-5.5-.5-1.3-1.8-4.5-2.3-5.7-5.8-17.6-3.2-37.4,5.6-53.5,5.6-9.8,12.7-18.3,20.9-25.6,11.7-13.2,26.9-24.9,39.9-33.5-29.5,8.6-56.3,26.4-71.6,53.3-9.2,16.9-12.1,37.5-7,56.2.6,1.6,1.7,5.4,2.4,6.9,1,2.1,2.1,4.5,3.1,6.5.8,1.3,3,4.9,3.8,6.1,6.8,9.5,15.7,17.5,25.7,23.6Z"/>
  <path class="st13" d="M572,417.8c3.1,13.5,4,27.3,3,41.3-14.9,34.8-41.8,52.1-64.7,61.4,26.8,25.8,29.6,54.1,29.6,54.1,0,0-13.9,22.1-14.6,49.3-3.2-24.8,6.6-49.8,6.6-49.8,0,0-6.9-27.3-37.1-48.4l14.6-70.9s10.8,9.9,31.7,10.7c-13.4-8.4-19.2-25.7-19.2-25.7,0,0,30,7.7,50.2-22Z"/>
  <path class="st3" d="M540.2,324.8c28,11.2,31.2,44.2,31.2,44.2-6.9-10-15.4-12.9-15.4-12.9,0,0-20.2,47.5-59.1,60.4-17.3-10.3-22.7-12-40.5-15.5,37,30,37.8,81.2,25.3,124.7-7.7,12.7-32.7,20.4-56.4,20.4s-48.7-7.7-56.4-20.4c-12.5-43.5-11.7-94.7,25.3-124.7-17.8,3.5-23.3,5.2-40.5,15.5-38.9-12.9-59.1-60.4-59.1-60.4,0,0-8.5,2.9-15.4,12.9,0,0,3.2-32.9,31.1-44.2,16.6,31.3,44.6,48,45.5,48.6-.8-.9-24.9-30.4-38-65.2,0-3.2,0-6.2-.2-9.1.1,0,.3,0,.4.1,1.1-6.4,1.6-13.4,1.6-20.6,0-24.3-6.4-45.3-15.7-54.9,14.7-13.5,32-16.6,32-16.6,0,0,51,11.3,88.5,11.3s90.4-11.3,90.4-11.3c0,0,15.7,1.3,31.9,16.7-9.2,9.6-15.6,30.5-15.6,54.8s.6,14.2,1.6,20.6c.1,0,.3,0,.4-.1-.1,2.9-.2,6-.2,9.1-13.1,34.8-37.2,64.3-38,65.2.9-.5,28.9-17.2,45.5-48.6Z"/>
  <path class="st5" d="M151.6,318.1c19.8,55.6,78,74.5,95.7,71.8-27.1,18.9-61,11.9-80.8,7.2-46.6-11-65.3-63.1-65.3-63.1,0,0,24.2-11.5,50.4-15.9Z"/>
  <path class="st1" d="M182.1,393.8c-31.8-2.2-56.9-30.8-61.5-59.8,14.5,25.7,32.7,47.9,61.5,59.8Z"/>
  <path class="st2" d="M747.6,334s-18.7,52.1-65.3,63.1c-19.8,4.7-53.7,11.7-80.8-7.2,17.8,2.7,75.9-16.2,95.7-71.8,26.2,4.4,50.4,15.9,50.4,15.9Z"/>
  <path class="st1" d="M666.8,393.8c28.7-11.9,46.9-34.1,61.5-59.8-4.6,29-29.6,57.6-61.5,59.8Z"/>
  <path class="st4" d="M341.1,454.8l14.6,70.9c-30.2,21.1-37.1,48.4-37.1,48.4,0,0,9.8,25,6.6,49.8-.8-27.2-14.7-49.3-14.7-49.3,0,0,2.8-28.3,29.6-54.1-22.9-9.3-49.8-26.6-64.7-61.4-1-14,0-27.7,3-41.3,20.2,29.7,50.2,22,50.2,22,0,0-5.8,17.2-19.2,25.7,20.9-.8,31.7-10.7,31.7-10.7Z"/>
  <path class="st9" d="M523.7,420.4s35.2,10.7,30.6-23.8c0,0-11.5,17.2-30.6,23.8Z"/>
  <path class="st9" d="M296.1,396.6c-4.6,34.5,30.6,23.8,30.6,23.8-19.1-6.6-30.6-23.8-30.6-23.8Z"/>
  <path class="st10" d="M425.2,341.4s10.5-68.1,62.7-100.4c0,0-33.9,9.1-62.7,9.1s-62.7-9.1-62.7-9.1c52,32.8,62.7,100.4,62.7,100.4Z"/>
  <path class="st1" d="M517,325c-18.3,2.4-36,21.4-45.2,37.9-3.3,5.9-7.5,21.8-14.8,21.8-1.9,0-11.8-4.5-12.7-3,2.8,14,24.1,19.7,33.2,10.4,2.6-2.7,3.8-18.3,5.8-24.3,3.7-10.8,10.9-20.9,17.9-29.5l15.8-13.3Z"/>
  <path class="st1" d="M349.2,338.3c7,8.5,14.2,18.7,17.9,29.5,2,5.9,3.2,21.5,5.8,24.3,9.1,9.4,30.4,3.7,33.2-10.4-.9-1.5-10.7,3-12.7,3-7.3,0-11.6-15.9-14.8-21.8-9.2-16.5-26.9-35.5-45.2-37.9l15.8,13.3Z"/>
  <ellipse class="st1" cx="310.1" cy="411.4" rx="5.5" ry="7.8" transform="translate(-205.1 415.2) rotate(-53.4)"/>
  <ellipse class="st1" cx="540.9" cy="411.4" rx="7.8" ry="5.5" transform="translate(-138.6 403.5) rotate(-36.6)"/>
</svg>