<?xml version="1.0" encoding="UTF-8"?>
<svg id="Layer_1" xmlns="http://www.w3.org/2000/svg" version="1.1" viewBox="0 0 850.4 841.9">
  <!-- Generator: Adobe Illustrator 29.5.1, SVG Export Plug-In . SVG Version: 2.1.0 Build 141)  -->
  <defs>
    <style>
      .st0 {
        stroke: #093566;
        stroke-linecap: round;
        stroke-linejoin: round;
        stroke-width: 7.7px;
      }

      .st0, .st1 {
        fill: #093566;
      }

      .st2 {
        fill: #fff;
      }
    </style>
  </defs>
  <rect class="st1" x=".9" y="0" width="849.7" height="842"/>
  <g>
    <g>
      <path class="st0" d="M135.5,378.5c-.9,4.6-2.7,8-5.3,10.2-2.6,2.2-6.3,3.3-11,3.3h-45.9c.6-1.6,1-2.8,1.3-3.7,1-3.1,1.7-5.3,2-6.6l9.3-46.1c.2-1.1.4-2.4.6-3.9.2-1.5.3-2.8.3-3.7s0-2.1-.2-2.7h46.1c7.6,0,11.4,2.9,11.4,8.8s0,1.4,0,2.2c0,.8-.2,1.6-.4,2.5l-2.1,9.9c-.5,2.7-1.3,4.8-2.3,6.2-1,1.4-2.5,2.5-4.5,3.2,2.3,1,3.4,3,3.4,5.9v1.2c-.2,1-.3,1.8-.4,2.4l-2.3,11.1ZM120,379.4l2.8-13.4c.2-1,.3-1.7.3-2.3,0-1.1-.8-1.7-2.3-1.7h-24.7l-4.3,21.3h24.7c1.8,0,3-1.3,3.5-3.9ZM126,349.8l2.4-11.9c.2-1,.3-1.8.3-2.4s-.2-1.2-.5-1.4c-.4-.2-.9-.3-1.6-.3h-24.7l-4,19.8h24.7c1.2,0,2-.3,2.4-.8.4-.5.8-1.5,1.1-3.1Z"/>
      <path class="st0" d="M166.7,392.1h-18c.6-1.5,1-2.7,1.4-3.6,1-2.8,1.6-5,2-6.7l9.3-46.1c.4-2,.6-3.4.7-4.2s.1-1.8.1-3.1,0-2.1-.3-3.1h18.2c-.7,1.7-1.1,2.9-1.4,3.8-.9,2.8-1.5,4.9-1.9,6.5l-9.3,46.1c-.4,1.9-.6,3.8-.7,5.9,0,2-.1,3.5-.2,4.5Z"/>
      <path class="st0" d="M244.6,392.1h-18l-5.8-29.1h-16.6l-3.8,18.9c-.4,1.8-.6,3.7-.7,5.7,0,2-.1,3.5-.2,4.4h-17.8c.6-1.4,1-2.6,1.3-3.5.9-2.7,1.5-4.9,1.9-6.6l9.3-46.3c.4-1.9.7-4.7.9-8.3,0-.6,0-1.2,0-2.1h45.9c3.9,0,6.7.7,8.6,2,1.8,1.3,2.8,3.6,2.8,6.8s0,1.4,0,2.2c0,.8-.2,1.6-.4,2.5l-2.5,11.8c-.9,4.3-2.2,7.5-4.2,9.6-1.9,2-4.7,3-8.2,3l3.4,17.4c.3,1.3,1,3.6,2.3,7,.4,1.1,1,2.7,1.9,4.7ZM234.4,350.4l2.5-12.5c.3-1.5.4-2.4.4-2.6,0-1-.8-1.5-2.3-1.5h-24.9l-4.1,20.4h24.9c1.2,0,2-.3,2.4-.8.4-.5.8-1.6,1.1-3.2Z"/>
      <path class="st0" d="M348.7,325.2c-.7,2-1.2,3.6-1.6,4.7-1.1,3.4-1.8,5.9-2.2,7.6l-8.9,44.3c-.3,1.3-.4,3-.5,5,0,2-.2,3.8-.3,5.4h-17.7c.6-1.4,1-2.6,1.4-3.4,1-2.7,1.7-5,2.1-6.9l8.7-42.8-31.7,53.1h-12.1s-9.9-53.1-9.9-53.1l-8.9,43.2c-.2,1.2-.3,2.8-.4,4.7,0,1.9-.2,3.6-.3,5.1h-10.8c.6-1.4,1-2.6,1.3-3.5,1-2.9,1.7-5.1,2-6.6l8.8-43.9c.9-4.8,1.4-9.1,1.4-12.9h20.3l9.7,51,30.1-51h19.6Z"/>
      <path class="st0" d="M368.9,392.1h-18c.6-1.5,1-2.7,1.4-3.6,1-2.8,1.6-5,2-6.7l9.3-46.1c.4-2,.6-3.4.7-4.2s.1-1.8.1-3.1,0-2.1-.3-3.1h18.2c-.7,1.7-1.1,2.9-1.4,3.8-.9,2.8-1.5,4.9-1.9,6.5l-9.3,46.1c-.4,1.9-.6,3.8-.7,5.9,0,2-.1,3.5-.2,4.5Z"/>
      <path class="st0" d="M458.9,325.2c-.6,1.7-1,3.1-1.4,4-1.1,3.3-1.8,5.6-2.1,7l-11.3,55.8h-17.7l-22.1-52.9-8.6,42.2c-.3,1.7-.5,3.4-.7,5.2-.1,1.7-.2,3.6-.2,5.5h-10.8c.6-1.6,1-2.9,1.4-3.9,1-2.9,1.6-5.1,2-6.8l8.8-43.3c.9-4.2,1.3-7.7,1.3-10.5s0-1.8,0-2.4h19l22.2,52.5,8.7-41.7c.7-3.1,1-5.9,1-8.4v-1.2c-.1-.6-.2-.9-.2-1.1h10.9Z"/>
      <path class="st0" d="M519.6,392.1h-14.2v-2.2c-1.1,1.5-3.8,2.2-7.8,2.2h-24.9c-3.9,0-6.7-.6-8.4-1.8-1.7-1.2-2.6-3.3-2.6-6.2s.2-3.2.6-5.3l8.2-40.4c1-4.9,2.7-8.3,5-10.3,2.4-1.9,5.9-2.9,10.7-2.9h43l-.8,10.1c-1.8-.4-3.3-.7-4.3-.8-3.2-.6-5.6-.8-7.2-.8h-27.2c-1.2,0-2,.3-2.5.8-.5.5-.9,1.5-1.1,2.9l-8.7,42.6v1.6c0,1.3.8,1.9,2.5,1.9h22.7c1.7,0,2.8-1,3.1-3.1l4.1-20.2h-14.7c-2.4,0-4.3.1-5.8.3-1.5.2-3.1.6-4.8,1.3l2.1-10.3h41c-.5,1.6-.9,2.9-1.2,3.8-.9,2.9-1.5,5.1-1.8,6.5l-4,19.9c-.4,1.9-.7,3.7-.8,5.6-.1,1.8-.2,3.4-.3,4.8Z"/>
      <path class="st0" d="M594.3,392.1h-17.8c.6-1.6,1-2.8,1.3-3.7,1-3.1,1.7-5.3,2-6.6l3.9-19.1h-27.8l-3.9,19.1c-.3,1.5-.5,3.2-.6,5-.1,1.8-.2,3.6-.3,5.3h-17.9c1.4-2.8,2.5-6.2,3.2-10.4l9.3-46.1c.7-3.2,1-6.1,1-8.7s0-1.3,0-1.7h17.9c-.7,1.7-1.1,2.9-1.4,3.8-.9,2.8-1.5,4.9-1.9,6.5l-3.6,18.3h27.8l3.6-18.3c.3-1.3.5-3.5.7-6.6,0-.9,0-2.1.2-3.7h17.8c-.7,1.7-1.1,2.9-1.4,3.8-1,2.8-1.6,5-1.9,6.5l-9.3,46.1c-.3,1.5-.5,3.7-.7,6.5,0,.9,0,2.2-.2,3.8Z"/>
      <path class="st0" d="M676.3,392.1h-20.3c0-.3,0-.9,0-1.8,0-.9,0-1.7,0-2.4s0-1.8,0-2.8c0-1-.2-1.9-.4-2.6l-2.3-9.4h-28.7l-6.1,9.8c-1,1.6-1.9,3.6-2.8,6-.3.8-.7,1.9-1.2,3.3h-12.3c1.4-1.6,2.5-2.8,3.2-3.8,2.5-3,4.3-5.4,5.4-7.2l31.9-50.7-2.5-5.2h18.3l12.9,54.9c.6,2.5,1.1,4.5,1.7,6,.8,2.1,1.8,4.1,2.9,5.9ZM651.6,364.3l-5.8-24.7-15.7,24.7h21.5Z"/>
      <path class="st0" d="M777.1,325.2c-.7,2-1.2,3.6-1.6,4.7-1.1,3.4-1.8,5.9-2.2,7.6l-8.9,44.3c-.3,1.3-.4,3-.5,5,0,2-.2,3.8-.3,5.4h-17.7c.6-1.4,1-2.6,1.4-3.4,1-2.7,1.7-5,2.1-6.9l8.7-42.8-31.7,53.1h-12.1s-9.9-53.1-9.9-53.1l-8.9,43.2c-.2,1.2-.3,2.8-.4,4.7,0,1.9-.2,3.6-.3,5.1h-10.8c.6-1.4,1-2.6,1.3-3.5,1-2.9,1.7-5.1,2-6.6l8.8-43.9c.9-4.8,1.4-9.1,1.4-12.9h20.3l9.7,51,30.1-51h19.6Z"/>
      <path class="st0" d="M244.8,449.8c-.7,1.8-1.2,3.2-1.5,4.1-1.1,3-1.7,5.3-2,6.7l-8.7,43.3c-1.7,8.4-6.4,12.7-14.1,12.7h-33.5c-6.9,0-10.4-3-10.4-8.9v-1.5c0-.4.1-1.2.4-2.3l8.8-43.7c.3-1.4.5-4.1.8-7.9,0-.6,0-1.4.2-2.5h17.8c-.7,1.7-1.1,2.9-1.4,3.8-.9,2.8-1.6,4.9-1.9,6.5l-9.1,44.7v1.2c0,1.2.6,1.9,1.9,1.9h29c1.6,0,2.7-1,3-3l8.9-44.3c.3-1.4.6-3,.7-5,.1-1.9.2-3.9.2-5.8h10.9Z"/>
      <path class="st0" d="M299.1,506.4l-3.5,10.3h-50.8c.6-1.5,1-2.7,1.3-3.6,1-3,1.7-5.2,2-6.7l9.3-46.2c.2-1.1.4-2.4.6-3.9.2-1.5.3-2.8.3-3.7s0-2.1-.2-2.7h18.1c-.4,1-.7,1.8-.9,2.4-1.2,3.6-2.1,6.3-2.5,8l-9.6,47.8h24c3,0,5.2,0,6.5-.2,1.3-.1,3.2-.6,5.5-1.4Z"/>
      <path class="st0" d="M361.6,460.2c-1.2-.4-2.9-.8-5.1-1.2-2.1-.4-4.1-.6-5.9-.6h-8.5l-9.7,47.9c-.4,1.9-.6,3.8-.6,5.6,0,1.8,0,3.4,0,4.8h-18.1c.6-1.5,1-2.6,1.4-3.4,1-2.7,1.7-5,2.1-6.9l9.7-47.9h-8.4c-2,0-4.1.2-6.4.5-2.3.3-4.1.8-5.5,1.3l3.7-10.4h51.9l-.6,10.4Z"/>
      <path class="st0" d="M379.8,516.7h-18c.6-1.5,1-2.7,1.4-3.6,1-2.8,1.6-5,2-6.7l9.3-46.1c.4-2,.6-3.4.7-4.2s.1-1.8.1-3.1,0-2.1-.3-3.1h18.2c-.7,1.7-1.1,2.9-1.4,3.8-.9,2.8-1.5,4.9-1.9,6.5l-9.3,46.1c-.4,1.9-.6,3.8-.7,5.9,0,2-.1,3.5-.2,4.5Z"/>
      <path class="st0" d="M488.2,449.8c-.7,2-1.2,3.6-1.6,4.7-1.1,3.4-1.8,5.9-2.2,7.6l-8.9,44.3c-.3,1.3-.4,3-.5,5,0,2-.2,3.8-.3,5.4h-17.7c.6-1.5,1-2.6,1.4-3.4,1-2.7,1.7-5,2.1-6.9l8.7-42.8-31.7,53.1h-12.1s-9.9-53.1-9.9-53.1l-8.9,43.2c-.2,1.2-.3,2.8-.4,4.7,0,1.9-.2,3.6-.3,5.1h-10.8c.6-1.4,1-2.6,1.3-3.5,1-2.9,1.7-5.1,2-6.6l8.8-43.9c.9-4.8,1.4-9.1,1.4-12.9h20.3l9.7,51,30.1-51h19.6Z"/>
      <path class="st0" d="M556.6,516.7h-20.3c0-.3,0-.9,0-1.8,0-.9,0-1.7,0-2.4s0-1.8,0-2.8c0-1-.2-1.9-.4-2.6l-2.3-9.4h-28.7l-6.1,9.8c-1,1.6-1.9,3.6-2.8,6-.3.8-.7,1.9-1.2,3.3h-12.3c1.4-1.6,2.5-2.8,3.2-3.8,2.5-3,4.3-5.4,5.4-7.2l31.9-50.7-2.5-5.2h18.3l12.9,54.9c.6,2.5,1.1,4.5,1.7,6,.8,2.1,1.8,4.1,2.9,5.9ZM531.9,488.8l-5.8-24.7-15.7,24.7h21.5Z"/>
      <path class="st0" d="M618.9,460.2c-1.2-.4-2.9-.8-5.1-1.2-2.1-.4-4.1-.6-5.9-.6h-8.5l-9.7,47.9c-.4,1.9-.6,3.8-.6,5.6,0,1.8,0,3.4,0,4.8h-18.1c.6-1.5,1-2.6,1.4-3.4,1-2.7,1.7-5,2.1-6.9l9.7-47.9h-8.4c-2,0-4.1.2-6.4.5-2.3.3-4.1.8-5.5,1.3l3.7-10.4h51.9l-.6,10.4Z"/>
      <path class="st0" d="M670.2,506.4l-3.2,10.3h-49.9c.6-1.5,1-2.7,1.3-3.6,1-3,1.7-5.2,2-6.7l9.3-46.2c.3-1.4.5-3.5.7-6.4,0-.9,0-2.2.2-3.9h49.9l-.9,10.2c-2.9-1-6.7-1.6-11.2-1.6h-22.9l-4.1,20.3h20.3c2.6,0,4.8-.1,6.5-.3,1.7-.2,3.6-.6,5.5-1.2l-2.4,11.7c-3.2-1-7-1.5-11.4-1.5h-20.3l-4.1,20.4h22.9c2.4,0,4.6-.1,6.4-.3,1.9-.2,3.7-.6,5.5-1.2Z"/>
    </g>
    <g>
      <path class="st2" d="M135.5,378.5c-.9,4.6-2.7,8-5.3,10.2-2.6,2.2-6.3,3.3-11,3.3h-45.9c.6-1.6,1-2.8,1.3-3.7,1-3.1,1.7-5.3,2-6.6l9.3-46.1c.2-1.1.4-2.4.6-3.9.2-1.5.3-2.8.3-3.7s0-2.1-.2-2.7h46.1c7.6,0,11.4,2.9,11.4,8.8s0,1.4,0,2.2c0,.8-.2,1.6-.4,2.5l-2.1,9.9c-.5,2.7-1.3,4.8-2.3,6.2-1,1.4-2.5,2.5-4.5,3.2,2.3,1,3.4,3,3.4,5.9v1.2c-.2,1-.3,1.8-.4,2.4l-2.3,11.1ZM120,379.4l2.8-13.4c.2-1,.3-1.7.3-2.3,0-1.1-.8-1.7-2.3-1.7h-24.7l-4.3,21.3h24.7c1.8,0,3-1.3,3.5-3.9ZM126,349.8l2.4-11.9c.2-1,.3-1.8.3-2.4s-.2-1.2-.5-1.4c-.4-.2-.9-.3-1.6-.3h-24.7l-4,19.8h24.7c1.2,0,2-.3,2.4-.8.4-.5.8-1.5,1.1-3.1Z"/>
      <path class="st2" d="M166.7,392.1h-18c.6-1.5,1-2.7,1.4-3.6,1-2.8,1.6-5,2-6.7l9.3-46.1c.4-2,.6-3.4.7-4.2s.1-1.8.1-3.1,0-2.1-.3-3.1h18.2c-.7,1.7-1.1,2.9-1.4,3.8-.9,2.8-1.5,4.9-1.9,6.5l-9.3,46.1c-.4,1.9-.6,3.8-.7,5.9,0,2-.1,3.5-.2,4.5Z"/>
      <path class="st2" d="M244.6,392.1h-18l-5.8-29.1h-16.6l-3.8,18.9c-.4,1.8-.6,3.7-.7,5.7,0,2-.1,3.5-.2,4.4h-17.8c.6-1.4,1-2.6,1.3-3.5.9-2.7,1.5-4.9,1.9-6.6l9.3-46.3c.4-1.9.7-4.7.9-8.3,0-.6,0-1.2,0-2.1h45.9c3.9,0,6.7.7,8.6,2,1.8,1.3,2.8,3.6,2.8,6.8s0,1.4,0,2.2c0,.8-.2,1.6-.4,2.5l-2.5,11.8c-.9,4.3-2.2,7.5-4.2,9.6-1.9,2-4.7,3-8.2,3l3.4,17.4c.3,1.3,1,3.6,2.3,7,.4,1.1,1,2.7,1.9,4.7ZM234.4,350.4l2.5-12.5c.3-1.5.4-2.4.4-2.6,0-1-.8-1.5-2.3-1.5h-24.9l-4.1,20.4h24.9c1.2,0,2-.3,2.4-.8.4-.5.8-1.6,1.1-3.2Z"/>
      <path class="st2" d="M348.7,325.2c-.7,2-1.2,3.6-1.6,4.7-1.1,3.4-1.8,5.9-2.2,7.6l-8.9,44.3c-.3,1.3-.4,3-.5,5,0,2-.2,3.8-.3,5.4h-17.7c.6-1.4,1-2.6,1.4-3.4,1-2.7,1.7-5,2.1-6.9l8.7-42.8-31.7,53.1h-12.1s-9.9-53.1-9.9-53.1l-8.9,43.2c-.2,1.2-.3,2.8-.4,4.7,0,1.9-.2,3.6-.3,5.1h-10.8c.6-1.4,1-2.6,1.3-3.5,1-2.9,1.7-5.1,2-6.6l8.8-43.9c.9-4.8,1.4-9.1,1.4-12.9h20.3l9.7,51,30.1-51h19.6Z"/>
      <path class="st2" d="M368.9,392.1h-18c.6-1.5,1-2.7,1.4-3.6,1-2.8,1.6-5,2-6.7l9.3-46.1c.4-2,.6-3.4.7-4.2s.1-1.8.1-3.1,0-2.1-.3-3.1h18.2c-.7,1.7-1.1,2.9-1.4,3.8-.9,2.8-1.5,4.9-1.9,6.5l-9.3,46.1c-.4,1.9-.6,3.8-.7,5.9,0,2-.1,3.5-.2,4.5Z"/>
      <path class="st2" d="M458.9,325.2c-.6,1.7-1,3.1-1.4,4-1.1,3.3-1.8,5.6-2.1,7l-11.3,55.8h-17.7l-22.1-52.9-8.6,42.2c-.3,1.7-.5,3.4-.7,5.2-.1,1.7-.2,3.6-.2,5.5h-10.8c.6-1.6,1-2.9,1.4-3.9,1-2.9,1.6-5.1,2-6.8l8.8-43.3c.9-4.2,1.3-7.7,1.3-10.5s0-1.8,0-2.4h19l22.2,52.5,8.7-41.7c.7-3.1,1-5.9,1-8.4v-1.2c-.1-.6-.2-.9-.2-1.1h10.9Z"/>
      <path class="st2" d="M519.6,392.1h-14.2v-2.2c-1.1,1.5-3.8,2.2-7.8,2.2h-24.9c-3.9,0-6.7-.6-8.4-1.8-1.7-1.2-2.6-3.3-2.6-6.2s.2-3.2.6-5.3l8.2-40.4c1-4.9,2.7-8.3,5-10.3,2.4-1.9,5.9-2.9,10.7-2.9h43l-.8,10.1c-1.8-.4-3.3-.7-4.3-.8-3.2-.6-5.6-.8-7.2-.8h-27.2c-1.2,0-2,.3-2.5.8-.5.5-.9,1.5-1.1,2.9l-8.7,42.6v1.6c0,1.3.8,1.9,2.5,1.9h22.7c1.7,0,2.8-1,3.1-3.1l4.1-20.2h-14.7c-2.4,0-4.3.1-5.8.3-1.5.2-3.1.6-4.8,1.3l2.1-10.3h41c-.5,1.6-.9,2.9-1.2,3.8-.9,2.9-1.5,5.1-1.8,6.5l-4,19.9c-.4,1.9-.7,3.7-.8,5.6-.1,1.8-.2,3.4-.3,4.8Z"/>
      <path class="st2" d="M594.3,392.1h-17.8c.6-1.6,1-2.8,1.3-3.7,1-3.1,1.7-5.3,2-6.6l3.9-19.1h-27.8l-3.9,19.1c-.3,1.5-.5,3.2-.6,5-.1,1.8-.2,3.6-.3,5.3h-17.9c1.4-2.8,2.5-6.2,3.2-10.4l9.3-46.1c.7-3.2,1-6.1,1-8.7s0-1.3,0-1.7h17.9c-.7,1.7-1.1,2.9-1.4,3.8-.9,2.8-1.5,4.9-1.9,6.5l-3.6,18.3h27.8l3.6-18.3c.3-1.3.5-3.5.7-6.6,0-.9,0-2.1.2-3.7h17.8c-.7,1.7-1.1,2.9-1.4,3.8-1,2.8-1.6,5-1.9,6.5l-9.3,46.1c-.3,1.5-.5,3.7-.7,6.5,0,.9,0,2.2-.2,3.8Z"/>
      <path class="st2" d="M676.3,392.1h-20.3c0-.3,0-.9,0-1.8,0-.9,0-1.7,0-2.4s0-1.8,0-2.8c0-1-.2-1.9-.4-2.6l-2.3-9.4h-28.7l-6.1,9.8c-1,1.6-1.9,3.6-2.8,6-.3.8-.7,1.9-1.2,3.3h-12.3c1.4-1.6,2.5-2.8,3.2-3.8,2.5-3,4.3-5.4,5.4-7.2l31.9-50.7-2.5-5.2h18.3l12.9,54.9c.6,2.5,1.1,4.5,1.7,6,.8,2.1,1.8,4.1,2.9,5.9ZM651.6,364.3l-5.8-24.7-15.7,24.7h21.5Z"/>
      <path class="st2" d="M777.1,325.2c-.7,2-1.2,3.6-1.6,4.7-1.1,3.4-1.8,5.9-2.2,7.6l-8.9,44.3c-.3,1.3-.4,3-.5,5,0,2-.2,3.8-.3,5.4h-17.7c.6-1.4,1-2.6,1.4-3.4,1-2.7,1.7-5,2.1-6.9l8.7-42.8-31.7,53.1h-12.1s-9.9-53.1-9.9-53.1l-8.9,43.2c-.2,1.2-.3,2.8-.4,4.7,0,1.9-.2,3.6-.3,5.1h-10.8c.6-1.4,1-2.6,1.3-3.5,1-2.9,1.7-5.1,2-6.6l8.8-43.9c.9-4.8,1.4-9.1,1.4-12.9h20.3l9.7,51,30.1-51h19.6Z"/>
      <path class="st2" d="M244.8,449.8c-.7,1.8-1.2,3.2-1.5,4.1-1.1,3-1.7,5.3-2,6.7l-8.7,43.3c-1.7,8.4-6.4,12.7-14.1,12.7h-33.5c-6.9,0-10.4-3-10.4-8.9v-1.5c0-.4.1-1.2.4-2.3l8.8-43.7c.3-1.4.5-4.1.8-7.9,0-.6,0-1.4.2-2.5h17.8c-.7,1.7-1.1,2.9-1.4,3.8-.9,2.8-1.6,4.9-1.9,6.5l-9.1,44.7v1.2c0,1.2.6,1.9,1.9,1.9h29c1.6,0,2.7-1,3-3l8.9-44.3c.3-1.4.6-3,.7-5,.1-1.9.2-3.9.2-5.8h10.9Z"/>
      <path class="st2" d="M299.1,506.4l-3.5,10.3h-50.8c.6-1.5,1-2.7,1.3-3.6,1-3,1.7-5.2,2-6.7l9.3-46.2c.2-1.1.4-2.4.6-3.9.2-1.5.3-2.8.3-3.7s0-2.1-.2-2.7h18.1c-.4,1-.7,1.8-.9,2.4-1.2,3.6-2.1,6.3-2.5,8l-9.6,47.8h24c3,0,5.2,0,6.5-.2,1.3-.1,3.2-.6,5.5-1.4Z"/>
      <path class="st2" d="M361.6,460.2c-1.2-.4-2.9-.8-5.1-1.2-2.1-.4-4.1-.6-5.9-.6h-8.5l-9.7,47.9c-.4,1.9-.6,3.8-.6,5.6,0,1.8,0,3.4,0,4.8h-18.1c.6-1.5,1-2.6,1.4-3.4,1-2.7,1.7-5,2.1-6.9l9.7-47.9h-8.4c-2,0-4.1.2-6.4.5-2.3.3-4.1.8-5.5,1.3l3.7-10.4h51.9l-.6,10.4Z"/>
      <path class="st2" d="M379.8,516.7h-18c.6-1.5,1-2.7,1.4-3.6,1-2.8,1.6-5,2-6.7l9.3-46.1c.4-2,.6-3.4.7-4.2s.1-1.8.1-3.1,0-2.1-.3-3.1h18.2c-.7,1.7-1.1,2.9-1.4,3.8-.9,2.8-1.5,4.9-1.9,6.5l-9.3,46.1c-.4,1.9-.6,3.8-.7,5.9,0,2-.1,3.5-.2,4.5Z"/>
      <path class="st2" d="M488.2,449.8c-.7,2-1.2,3.6-1.6,4.7-1.1,3.4-1.8,5.9-2.2,7.6l-8.9,44.3c-.3,1.3-.4,3-.5,5,0,2-.2,3.8-.3,5.4h-17.7c.6-1.5,1-2.6,1.4-3.4,1-2.7,1.7-5,2.1-6.9l8.7-42.8-31.7,53.1h-12.1s-9.9-53.1-9.9-53.1l-8.9,43.2c-.2,1.2-.3,2.8-.4,4.7,0,1.9-.2,3.6-.3,5.1h-10.8c.6-1.4,1-2.6,1.3-3.5,1-2.9,1.7-5.1,2-6.6l8.8-43.9c.9-4.8,1.4-9.1,1.4-12.9h20.3l9.7,51,30.1-51h19.6Z"/>
      <path class="st2" d="M556.6,516.7h-20.3c0-.3,0-.9,0-1.8,0-.9,0-1.7,0-2.4s0-1.8,0-2.8c0-1-.2-1.9-.4-2.6l-2.3-9.4h-28.7l-6.1,9.8c-1,1.6-1.9,3.6-2.8,6-.3.8-.7,1.9-1.2,3.3h-12.3c1.4-1.6,2.5-2.8,3.2-3.8,2.5-3,4.3-5.4,5.4-7.2l31.9-50.7-2.5-5.2h18.3l12.9,54.9c.6,2.5,1.1,4.5,1.7,6,.8,2.1,1.8,4.1,2.9,5.9ZM531.9,488.8l-5.8-24.7-15.7,24.7h21.5Z"/>
      <path class="st2" d="M618.9,460.2c-1.2-.4-2.9-.8-5.1-1.2-2.1-.4-4.1-.6-5.9-.6h-8.5l-9.7,47.9c-.4,1.9-.6,3.8-.6,5.6,0,1.8,0,3.4,0,4.8h-18.1c.6-1.5,1-2.6,1.4-3.4,1-2.7,1.7-5,2.1-6.9l9.7-47.9h-8.4c-2,0-4.1.2-6.4.5-2.3.3-4.1.8-5.5,1.3l3.7-10.4h51.9l-.6,10.4Z"/>
      <path class="st2" d="M670.2,506.4l-3.2,10.3h-49.9c.6-1.5,1-2.7,1.3-3.6,1-3,1.7-5.2,2-6.7l9.3-46.2c.3-1.4.5-3.5.7-6.4,0-.9,0-2.2.2-3.9h49.9l-.9,10.2c-2.9-1-6.7-1.6-11.2-1.6h-22.9l-4.1,20.3h20.3c2.6,0,4.8-.1,6.5-.3,1.7-.2,3.6-.6,5.5-1.2l-2.4,11.7c-3.2-1-7-1.5-11.4-1.5h-20.3l-4.1,20.4h22.9c2.4,0,4.6-.1,6.4-.3,1.9-.2,3.7-.6,5.5-1.2Z"/>
    </g>
  </g>
</svg>